STARTFONT 2.1
FONT -ibm-courier-medium-o-normal--8-80-75-75-m-44-iso8859-2
SIZE 8 75 75
FONTBOUNDINGBOX 7 9 0 -1
COMMENT $Header: courO08.bdf,v 1.1 96/01/22 23:45:34 peterlin Exp $
COMMENT 
COMMENT Copyright International Business Machines,Corp. 1991
COMMENT IBM Courier is a Trademark of the IBM Corporation.
COMMENT 
COMMENT Automatic rendering from Adobe Type 1 outline:
COMMENT Primoz Peterlin <primoz.peterlin@biofiz.mf.uni-lj.si>
COMMENT couri.pfa rendered at 9.000000 points
COMMENT Checksum eb69a063
STARTPROPERTIES 3
FONT_ASCENT 7
FONT_DESCENT 1
DEFAULT_CHAR 32
ENDPROPERTIES
CHARS 191
STARTCHAR space
ENCODING 32
SWIDTH 635 0
DWIDTH 6 0
BBX 0 0 0 1
BITMAP
ENDCHAR
STARTCHAR exclam
ENCODING 33
SWIDTH 635 0
DWIDTH 6 0
BBX 2 5 2 1
BITMAP
40
40
40
00
80
ENDCHAR
STARTCHAR quotedbl
ENCODING 34
SWIDTH 635 0
DWIDTH 6 0
BBX 3 3 2 3
BITMAP
a0
a0
a0
ENDCHAR
STARTCHAR numbersign
ENCODING 35
SWIDTH 635 0
DWIDTH 6 0
BBX 5 7 1 0
BITMAP
28
28
f8
50
f8
a0
a0
ENDCHAR
STARTCHAR dollar
ENCODING 36
SWIDTH 635 0
DWIDTH 6 0
BBX 4 7 1 0
BITMAP
10
30
60
20
30
e0
40
ENDCHAR
STARTCHAR percent
ENCODING 37
SWIDTH 635 0
DWIDTH 6 0
BBX 4 5 1 1
BITMAP
e0
f0
f0
50
60
ENDCHAR
STARTCHAR ampersand
ENCODING 38
SWIDTH 635 0
DWIDTH 6 0
BBX 4 5 1 1
BITMAP
70
40
50
a0
f0
ENDCHAR
STARTCHAR quoteright
ENCODING 39
SWIDTH 635 0
DWIDTH 6 0
BBX 2 2 2 4
BITMAP
40
80
ENDCHAR
STARTCHAR parenleft
ENCODING 40
SWIDTH 635 0
DWIDTH 6 0
BBX 2 7 3 0
BITMAP
40
40
80
80
80
80
80
ENDCHAR
STARTCHAR parenright
ENCODING 41
SWIDTH 635 0
DWIDTH 6 0
BBX 3 7 1 0
BITMAP
20
20
20
20
60
40
80
ENDCHAR
STARTCHAR asterisk
ENCODING 42
SWIDTH 635 0
DWIDTH 6 0
BBX 3 3 2 3
BITMAP
40
e0
c0
ENDCHAR
STARTCHAR plus
ENCODING 43
SWIDTH 635 0
DWIDTH 6 0
BBX 4 4 1 2
BITMAP
20
20
f0
20
ENDCHAR
STARTCHAR comma
ENCODING 44
SWIDTH 635 0
DWIDTH 6 0
BBX 2 2 1 0
BITMAP
40
80
ENDCHAR
STARTCHAR minus
ENCODING 45
SWIDTH 635 0
DWIDTH 6 0
BBX 4 1 1 3
BITMAP
f0
ENDCHAR
STARTCHAR period
ENCODING 46
SWIDTH 635 0
DWIDTH 6 0
BBX 1 1 2 1
BITMAP
80
ENDCHAR
STARTCHAR slash
ENCODING 47
SWIDTH 635 0
DWIDTH 6 0
BBX 5 8 1 0
BITMAP
08
08
10
20
20
40
40
80
ENDCHAR
STARTCHAR zero
ENCODING 48
SWIDTH 635 0
DWIDTH 6 0
BBX 4 5 1 1
BITMAP
70
50
90
90
e0
ENDCHAR
STARTCHAR one
ENCODING 49
SWIDTH 635 0
DWIDTH 6 0
BBX 4 5 1 1
BITMAP
60
20
20
20
70
ENDCHAR
STARTCHAR two
ENCODING 50
SWIDTH 635 0
DWIDTH 6 0
BBX 4 5 1 1
BITMAP
70
10
20
40
e0
ENDCHAR
STARTCHAR three
ENCODING 51
SWIDTH 635 0
DWIDTH 6 0
BBX 4 5 1 1
BITMAP
30
10
10
10
e0
ENDCHAR
STARTCHAR four
ENCODING 52
SWIDTH 635 0
DWIDTH 6 0
BBX 4 5 1 1
BITMAP
30
70
50
f0
70
ENDCHAR
STARTCHAR five
ENCODING 53
SWIDTH 635 0
DWIDTH 6 0
BBX 4 5 1 1
BITMAP
70
60
10
10
60
ENDCHAR
STARTCHAR six
ENCODING 54
SWIDTH 635 0
DWIDTH 6 0
BBX 5 5 1 1
BITMAP
78
60
90
90
e0
ENDCHAR
STARTCHAR seven
ENCODING 55
SWIDTH 635 0
DWIDTH 6 0
BBX 5 5 2 1
BITMAP
f8
20
20
40
40
ENDCHAR
STARTCHAR eight
ENCODING 56
SWIDTH 635 0
DWIDTH 6 0
BBX 4 5 1 1
BITMAP
70
50
60
90
e0
ENDCHAR
STARTCHAR nine
ENCODING 57
SWIDTH 635 0
DWIDTH 6 0
BBX 5 5 1 1
BITMAP
70
48
70
20
e0
ENDCHAR
STARTCHAR colon
ENCODING 58
SWIDTH 635 0
DWIDTH 6 0
BBX 2 3 2 1
BITMAP
40
00
80
ENDCHAR
STARTCHAR semicolon
ENCODING 59
SWIDTH 635 0
DWIDTH 6 0
BBX 3 4 1 0
BITMAP
20
00
40
40
ENDCHAR
STARTCHAR less
ENCODING 60
SWIDTH 635 0
DWIDTH 6 0
BBX 4 4 1 2
BITMAP
30
40
40
20
ENDCHAR
STARTCHAR equal
ENCODING 61
SWIDTH 635 0
DWIDTH 6 0
BBX 4 3 1 2
BITMAP
f0
00
f0
ENDCHAR
STARTCHAR greater
ENCODING 62
SWIDTH 635 0
DWIDTH 6 0
BBX 4 4 1 2
BITMAP
c0
20
20
c0
ENDCHAR
STARTCHAR question
ENCODING 63
SWIDTH 635 0
DWIDTH 6 0
BBX 3 5 2 1
BITMAP
e0
60
40
00
80
ENDCHAR
STARTCHAR at
ENCODING 64
SWIDTH 635 0
DWIDTH 6 0
BBX 6 5 0 1
BITMAP
38
5c
b4
b8
78
ENDCHAR
STARTCHAR A
ENCODING 65
SWIDTH 635 0
DWIDTH 6 0
BBX 5 5 0 1
BITMAP
30
30
30
70
c8
ENDCHAR
STARTCHAR B
ENCODING 66
SWIDTH 635 0
DWIDTH 6 0
BBX 6 5 0 1
BITMAP
7c
24
38
48
78
ENDCHAR
STARTCHAR C
ENCODING 67
SWIDTH 635 0
DWIDTH 6 0
BBX 5 5 1 1
BITMAP
78
88
80
80
70
ENDCHAR
STARTCHAR D
ENCODING 68
SWIDTH 635 0
DWIDTH 6 0
BBX 6 5 0 1
BITMAP
78
24
24
48
70
ENDCHAR
STARTCHAR E
ENCODING 69
SWIDTH 635 0
DWIDTH 6 0
BBX 6 5 1 1
BITMAP
78
34
60
48
70
ENDCHAR
STARTCHAR F
ENCODING 70
SWIDTH 635 0
DWIDTH 6 0
BBX 6 5 1 1
BITMAP
78
34
60
40
c0
ENDCHAR
STARTCHAR G
ENCODING 71
SWIDTH 635 0
DWIDTH 6 0
BBX 5 5 1 1
BITMAP
78
88
90
90
70
ENDCHAR
STARTCHAR H
ENCODING 72
SWIDTH 635 0
DWIDTH 6 0
BBX 6 5 0 1
BITMAP
6c
28
78
48
d8
ENDCHAR
STARTCHAR I
ENCODING 73
SWIDTH 635 0
DWIDTH 6 0
BBX 5 5 1 1
BITMAP
78
20
20
20
70
ENDCHAR
STARTCHAR J
ENCODING 74
SWIDTH 635 0
DWIDTH 6 0
BBX 6 5 0 1
BITMAP
3c
08
08
90
f0
ENDCHAR
STARTCHAR K
ENCODING 75
SWIDTH 635 0
DWIDTH 6 0
BBX 6 5 0 1
BITMAP
6c
30
70
50
d8
ENDCHAR
STARTCHAR L
ENCODING 76
SWIDTH 635 0
DWIDTH 6 0
BBX 5 5 0 1
BITMAP
60
40
40
48
78
ENDCHAR
STARTCHAR M
ENCODING 77
SWIDTH 635 0
DWIDTH 6 0
BBX 6 5 0 1
BITMAP
4c
74
74
54
c8
ENDCHAR
STARTCHAR N
ENCODING 78
SWIDTH 635 0
DWIDTH 6 0
BBX 6 5 0 1
BITMAP
6c
64
54
58
d0
ENDCHAR
STARTCHAR O
ENCODING 79
SWIDTH 635 0
DWIDTH 6 0
BBX 5 5 1 1
BITMAP
70
88
88
90
e0
ENDCHAR
STARTCHAR P
ENCODING 80
SWIDTH 635 0
DWIDTH 6 0
BBX 5 5 1 1
BITMAP
78
48
70
40
c0
ENDCHAR
STARTCHAR Q
ENCODING 81
SWIDTH 635 0
DWIDTH 6 0
BBX 5 6 1 0
BITMAP
70
88
88
90
e0
f0
ENDCHAR
STARTCHAR R
ENCODING 82
SWIDTH 635 0
DWIDTH 6 0
BBX 6 5 0 1
BITMAP
7c
2c
30
50
4c
ENDCHAR
STARTCHAR S
ENCODING 83
SWIDTH 635 0
DWIDTH 6 0
BBX 5 5 1 1
BITMAP
78
c8
20
50
e0
ENDCHAR
STARTCHAR T
ENCODING 84
SWIDTH 635 0
DWIDTH 6 0
BBX 5 5 1 1
BITMAP
f0
a8
20
20
60
ENDCHAR
STARTCHAR U
ENCODING 85
SWIDTH 635 0
DWIDTH 6 0
BBX 5 5 1 1
BITMAP
d8
88
88
90
e0
ENDCHAR
STARTCHAR V
ENCODING 86
SWIDTH 635 0
DWIDTH 6 0
BBX 5 5 1 1
BITMAP
d8
50
50
60
40
ENDCHAR
STARTCHAR W
ENCODING 87
SWIDTH 635 0
DWIDTH 6 0
BBX 5 5 1 1
BITMAP
88
a8
f0
f0
90
ENDCHAR
STARTCHAR X
ENCODING 88
SWIDTH 635 0
DWIDTH 6 0
BBX 6 5 0 1
BITMAP
7c
28
10
70
d8
ENDCHAR
STARTCHAR Y
ENCODING 89
SWIDTH 635 0
DWIDTH 6 0
BBX 5 5 1 1
BITMAP
d8
50
60
40
60
ENDCHAR
STARTCHAR Z
ENCODING 90
SWIDTH 635 0
DWIDTH 6 0
BBX 5 5 1 1
BITMAP
78
50
60
48
70
ENDCHAR
STARTCHAR bracketleft
ENCODING 91
SWIDTH 635 0
DWIDTH 6 0
BBX 3 7 3 0
BITMAP
60
40
40
40
80
80
c0
ENDCHAR
STARTCHAR backslash
ENCODING 92
SWIDTH 635 0
DWIDTH 6 0
BBX 2 8 2 0
BITMAP
80
80
80
80
40
40
40
40
ENDCHAR
STARTCHAR bracketright
ENCODING 93
SWIDTH 635 0
DWIDTH 6 0
BBX 3 7 1 0
BITMAP
60
20
20
20
20
40
c0
ENDCHAR
STARTCHAR asciicircum
ENCODING 94
SWIDTH 635 0
DWIDTH 6 0
BBX 4 4 1 2
BITMAP
60
60
90
90
ENDCHAR
STARTCHAR underscore
ENCODING 95
SWIDTH 635 0
DWIDTH 6 0
BBX 6 1 0 0
BITMAP
fc
ENDCHAR
STARTCHAR quoteleft
ENCODING 96
SWIDTH 635 0
DWIDTH 6 0
BBX 2 2 2 4
BITMAP
40
80
ENDCHAR
STARTCHAR a
ENCODING 97
SWIDTH 635 0
DWIDTH 6 0
BBX 5 4 0 1
BITMAP
38
78
88
f8
ENDCHAR
STARTCHAR b
ENCODING 98
SWIDTH 635 0
DWIDTH 6 0
BBX 6 5 0 1
BITMAP
20
38
44
44
b8
ENDCHAR
STARTCHAR c
ENCODING 99
SWIDTH 635 0
DWIDTH 6 0
BBX 4 4 1 1
BITMAP
70
90
80
e0
ENDCHAR
STARTCHAR d
ENCODING 100
SWIDTH 635 0
DWIDTH 6 0
BBX 5 5 1 1
BITMAP
10
70
90
90
f0
ENDCHAR
STARTCHAR e
ENCODING 101
SWIDTH 635 0
DWIDTH 6 0
BBX 5 4 1 1
BITMAP
70
f8
80
f8
ENDCHAR
STARTCHAR f
ENCODING 102
SWIDTH 635 0
DWIDTH 6 0
BBX 6 5 1 1
BITMAP
3c
70
40
40
e0
ENDCHAR
STARTCHAR g
ENCODING 103
SWIDTH 635 0
DWIDTH 6 0
BBX 5 6 1 -1
BITMAP
68
90
90
f0
20
c0
ENDCHAR
STARTCHAR h
ENCODING 104
SWIDTH 635 0
DWIDTH 6 0
BBX 5 5 0 1
BITMAP
20
38
48
48
58
ENDCHAR
STARTCHAR i
ENCODING 105
SWIDTH 635 0
DWIDTH 6 0
BBX 4 6 1 1
BITMAP
20
00
60
20
20
70
ENDCHAR
STARTCHAR j
ENCODING 106
SWIDTH 635 0
DWIDTH 6 0
BBX 5 8 0 -1
BITMAP
08
00
60
10
10
10
20
c0
ENDCHAR
STARTCHAR k
ENCODING 107
SWIDTH 635 0
DWIDTH 6 0
BBX 5 5 1 1
BITMAP
40
58
60
90
98
ENDCHAR
STARTCHAR l
ENCODING 108
SWIDTH 635 0
DWIDTH 6 0
BBX 4 5 1 1
BITMAP
20
20
20
20
70
ENDCHAR
STARTCHAR m
ENCODING 109
SWIDTH 635 0
DWIDTH 6 0
BBX 6 4 0 1
BITMAP
6c
54
54
d4
ENDCHAR
STARTCHAR n
ENCODING 110
SWIDTH 635 0
DWIDTH 6 0
BBX 5 4 0 1
BITMAP
78
48
48
58
ENDCHAR
STARTCHAR o
ENCODING 111
SWIDTH 635 0
DWIDTH 6 0
BBX 5 4 1 1
BITMAP
70
88
98
e0
ENDCHAR
STARTCHAR p
ENCODING 112
SWIDTH 635 0
DWIDTH 6 0
BBX 6 6 0 -1
BITMAP
78
44
44
78
40
c0
ENDCHAR
STARTCHAR q
ENCODING 113
SWIDTH 635 0
DWIDTH 6 0
BBX 5 6 1 -1
BITMAP
68
90
90
f0
10
30
ENDCHAR
STARTCHAR r
ENCODING 114
SWIDTH 635 0
DWIDTH 6 0
BBX 5 4 1 1
BITMAP
78
20
40
e0
ENDCHAR
STARTCHAR s
ENCODING 115
SWIDTH 635 0
DWIDTH 6 0
BBX 4 4 1 1
BITMAP
70
e0
10
e0
ENDCHAR
STARTCHAR t
ENCODING 116
SWIDTH 635 0
DWIDTH 6 0
BBX 4 5 1 1
BITMAP
40
70
40
80
f0
ENDCHAR
STARTCHAR u
ENCODING 117
SWIDTH 635 0
DWIDTH 6 0
BBX 4 4 1 1
BITMAP
90
90
90
f0
ENDCHAR
STARTCHAR v
ENCODING 118
SWIDTH 635 0
DWIDTH 6 0
BBX 5 4 1 1
BITMAP
d8
50
60
40
ENDCHAR
STARTCHAR w
ENCODING 119
SWIDTH 635 0
DWIDTH 6 0
BBX 5 4 1 1
BITMAP
c8
a8
50
50
ENDCHAR
STARTCHAR x
ENCODING 120
SWIDTH 635 0
DWIDTH 6 0
BBX 6 4 0 1
BITMAP
7c
30
30
f8
ENDCHAR
STARTCHAR y
ENCODING 121
SWIDTH 635 0
DWIDTH 6 0
BBX 5 6 1 -1
BITMAP
d8
90
90
f0
20
e0
ENDCHAR
STARTCHAR z
ENCODING 122
SWIDTH 635 0
DWIDTH 6 0
BBX 4 4 1 1
BITMAP
70
20
40
e0
ENDCHAR
STARTCHAR braceleft
ENCODING 123
SWIDTH 635 0
DWIDTH 6 0
BBX 3 7 2 0
BITMAP
20
40
40
c0
40
80
c0
ENDCHAR
STARTCHAR bar
ENCODING 124
SWIDTH 635 0
DWIDTH 6 0
BBX 1 8 3 -1
BITMAP
80
80
80
80
80
80
80
80
ENDCHAR
STARTCHAR braceright
ENCODING 125
SWIDTH 635 0
DWIDTH 6 0
BBX 3 7 1 0
BITMAP
60
20
40
60
40
40
80
ENDCHAR
STARTCHAR asciitilde
ENCODING 126
SWIDTH 635 0
DWIDTH 6 0
BBX 4 1 1 3
BITMAP
70
ENDCHAR
STARTCHAR space
ENCODING 160
SWIDTH 635 0
DWIDTH 6 0
BBX 0 0 0 1
BITMAP
ENDCHAR
STARTCHAR Aogonek
ENCODING 161
SWIDTH 635 0
DWIDTH 6 0
BBX 5 6 0 0
BITMAP
30
28
28
78
c8
18
ENDCHAR
STARTCHAR breve
ENCODING 162
SWIDTH 635 0
DWIDTH 6 0
BBX 3 2 2 5
BITMAP
80
e0
ENDCHAR
STARTCHAR Lslash
ENCODING 163
SWIDTH 635 0
DWIDTH 6 0
BBX 5 5 0 1
BITMAP
60
30
c8
48
78
ENDCHAR
STARTCHAR currency
ENCODING 164
SWIDTH 635 0
DWIDTH 6 0
BBX 5 4 1 2
BITMAP
48
f0
90
e0
ENDCHAR
STARTCHAR Lcaron
ENCODING 165
SWIDTH 635 0
DWIDTH 6 0
BBX 6 5 0 1
BITMAP
64
40
40
48
78
ENDCHAR
STARTCHAR Sacute
ENCODING 166
SWIDTH 635 0
DWIDTH 6 0
BBX 5 7 1 1
BITMAP
10
00
78
c8
20
50
e0
ENDCHAR
STARTCHAR section
ENCODING 167
SWIDTH 635 0
DWIDTH 6 0
BBX 4 6 1 0
BITMAP
70
40
b0
50
20
e0
ENDCHAR
STARTCHAR dieresis
ENCODING 168
SWIDTH 635 0
DWIDTH 6 0
BBX 2 1 3 5
BITMAP
c0
ENDCHAR
STARTCHAR Scaron
ENCODING 169
SWIDTH 635 0
DWIDTH 6 0
BBX 5 7 1 1
BITMAP
30
20
78
c8
20
50
e0
ENDCHAR
STARTCHAR Scedilla
ENCODING 170
SWIDTH 635 0
DWIDTH 6 0
BBX 5 7 1 -1
BITMAP
78
c8
30
50
e0
60
40
ENDCHAR
STARTCHAR Tcaron
ENCODING 171
SWIDTH 635 0
DWIDTH 6 0
BBX 5 7 1 1
BITMAP
30
20
f0
a8
20
20
60
ENDCHAR
STARTCHAR Zacute
ENCODING 172
SWIDTH 635 0
DWIDTH 6 0
BBX 5 7 1 1
BITMAP
10
00
78
50
60
48
70
ENDCHAR
STARTCHAR hyphen
ENCODING 173
SWIDTH 635 0
DWIDTH 6 0
BBX 2 1 2 3
BITMAP
c0
ENDCHAR
STARTCHAR Zcaron
ENCODING 174
SWIDTH 635 0
DWIDTH 6 0
BBX 5 7 1 1
BITMAP
30
20
78
50
60
48
70
ENDCHAR
STARTCHAR Zdotaccent
ENCODING 175
SWIDTH 635 0
DWIDTH 6 0
BBX 5 7 1 1
BITMAP
10
00
78
50
60
48
70
ENDCHAR
STARTCHAR degree
ENCODING 176
SWIDTH 635 0
DWIDTH 6 0
BBX 3 2 2 4
BITMAP
e0
e0
ENDCHAR
STARTCHAR aogonek
ENCODING 177
SWIDTH 635 0
DWIDTH 6 0
BBX 5 5 0 0
BITMAP
38
78
98
f8
10
ENDCHAR
STARTCHAR ogonek
ENCODING 178
SWIDTH 635 0
DWIDTH 6 0
BBX 2 1 2 0
BITMAP
c0
ENDCHAR
STARTCHAR lslash
ENCODING 179
SWIDTH 635 0
DWIDTH 6 0
BBX 4 5 1 1
BITMAP
20
30
40
40
e0
ENDCHAR
STARTCHAR acute
ENCODING 180
SWIDTH 635 0
DWIDTH 6 0
BBX 2 1 3 5
BITMAP
40
ENDCHAR
STARTCHAR lcaron
ENCODING 181
SWIDTH 635 0
DWIDTH 6 0
BBX 5 5 1 1
BITMAP
28
20
20
20
70
ENDCHAR
STARTCHAR sacute
ENCODING 182
SWIDTH 635 0
DWIDTH 6 0
BBX 4 5 1 1
BITMAP
10
70
e0
10
e0
ENDCHAR
STARTCHAR caron
ENCODING 183
SWIDTH 635 0
DWIDTH 6 0
BBX 2 1 3 5
BITMAP
80
ENDCHAR
STARTCHAR cedilla
ENCODING 184
SWIDTH 635 0
DWIDTH 6 0
BBX 2 3 2 -1
BITMAP
40
c0
80
ENDCHAR
STARTCHAR scaron
ENCODING 185
SWIDTH 635 0
DWIDTH 6 0
BBX 4 5 1 1
BITMAP
20
70
e0
10
e0
ENDCHAR
STARTCHAR scedilla
ENCODING 186
SWIDTH 635 0
DWIDTH 6 0
BBX 4 6 1 -1
BITMAP
70
e0
10
f0
60
40
ENDCHAR
STARTCHAR tcaron
ENCODING 187
SWIDTH 635 0
DWIDTH 6 0
BBX 4 5 1 1
BITMAP
50
70
40
80
f0
ENDCHAR
STARTCHAR zacute
ENCODING 188
SWIDTH 635 0
DWIDTH 6 0
BBX 4 5 1 1
BITMAP
10
70
20
40
e0
ENDCHAR
STARTCHAR hungarumlaut
ENCODING 189
SWIDTH 635 0
DWIDTH 6 0
BBX 3 1 2 5
BITMAP
60
ENDCHAR
STARTCHAR zcaron
ENCODING 190
SWIDTH 635 0
DWIDTH 6 0
BBX 4 5 1 1
BITMAP
20
70
20
40
e0
ENDCHAR
STARTCHAR zdotaccent
ENCODING 191
SWIDTH 635 0
DWIDTH 6 0
BBX 4 5 1 1
BITMAP
20
70
20
40
e0
ENDCHAR
STARTCHAR Racute
ENCODING 192
SWIDTH 635 0
DWIDTH 6 0
BBX 6 7 0 1
BITMAP
08
00
7c
2c
30
50
4c
ENDCHAR
STARTCHAR Aacute
ENCODING 193
SWIDTH 635 0
DWIDTH 6 0
BBX 5 7 0 1
BITMAP
08
00
30
30
30
70
c8
ENDCHAR
STARTCHAR Acircumflex
ENCODING 194
SWIDTH 635 0
DWIDTH 6 0
BBX 5 7 0 1
BITMAP
18
00
30
30
30
70
c8
ENDCHAR
STARTCHAR Abreve
ENCODING 195
SWIDTH 635 0
DWIDTH 6 0
BBX 5 7 0 1
BITMAP
28
18
30
30
30
70
c8
ENDCHAR
STARTCHAR Adieresis
ENCODING 196
SWIDTH 635 0
DWIDTH 6 0
BBX 5 7 0 1
BITMAP
18
00
30
30
30
70
c8
ENDCHAR
STARTCHAR Lacute
ENCODING 197
SWIDTH 635 0
DWIDTH 6 0
BBX 5 7 0 1
BITMAP
10
00
60
40
40
48
78
ENDCHAR
STARTCHAR Cacute
ENCODING 198
SWIDTH 635 0
DWIDTH 6 0
BBX 5 7 1 1
BITMAP
10
00
78
88
80
80
70
ENDCHAR
STARTCHAR Ccedilla
ENCODING 199
SWIDTH 635 0
DWIDTH 6 0
BBX 5 7 1 -1
BITMAP
78
88
80
80
70
20
60
ENDCHAR
STARTCHAR Ccaron
ENCODING 200
SWIDTH 635 0
DWIDTH 6 0
BBX 5 7 1 1
BITMAP
30
20
78
88
80
80
70
ENDCHAR
STARTCHAR Eacute
ENCODING 201
SWIDTH 635 0
DWIDTH 6 0
BBX 6 7 1 1
BITMAP
10
00
78
34
60
48
70
ENDCHAR
STARTCHAR Eogonek
ENCODING 202
SWIDTH 635 0
DWIDTH 6 0
BBX 6 6 0 0
BITMAP
38
2c
30
24
78
10
ENDCHAR
STARTCHAR Edieresis
ENCODING 203
SWIDTH 635 0
DWIDTH 6 0
BBX 6 7 1 1
BITMAP
30
00
78
34
60
48
70
ENDCHAR
STARTCHAR Ecaron
ENCODING 204
SWIDTH 635 0
DWIDTH 6 0
BBX 6 7 1 1
BITMAP
30
20
78
34
60
48
70
ENDCHAR
STARTCHAR Iacute
ENCODING 205
SWIDTH 635 0
DWIDTH 6 0
BBX 5 7 1 1
BITMAP
10
00
78
20
20
20
70
ENDCHAR
STARTCHAR Icircumflex
ENCODING 206
SWIDTH 635 0
DWIDTH 6 0
BBX 5 7 1 1
BITMAP
30
00
78
20
20
20
70
ENDCHAR
STARTCHAR Dcaron
ENCODING 207
SWIDTH 635 0
DWIDTH 6 0
BBX 6 7 0 1
BITMAP
18
10
78
24
24
48
70
ENDCHAR
STARTCHAR Eth
ENCODING 208
SWIDTH 635 0
DWIDTH 6 0
BBX 6 5 0 1
BITMAP
78
24
64
48
70
ENDCHAR
STARTCHAR Nacute
ENCODING 209
SWIDTH 635 0
DWIDTH 6 0
BBX 6 7 0 1
BITMAP
08
00
6c
64
54
58
d0
ENDCHAR
STARTCHAR Ncaron
ENCODING 210
SWIDTH 635 0
DWIDTH 6 0
BBX 6 7 0 1
BITMAP
18
10
6c
64
54
58
d0
ENDCHAR
STARTCHAR Oacute
ENCODING 211
SWIDTH 635 0
DWIDTH 6 0
BBX 5 7 1 1
BITMAP
10
00
70
88
88
90
e0
ENDCHAR
STARTCHAR Ocircumflex
ENCODING 212
SWIDTH 635 0
DWIDTH 6 0
BBX 5 7 1 1
BITMAP
30
00
70
88
88
90
e0
ENDCHAR
STARTCHAR Ohungarumlaut
ENCODING 213
SWIDTH 635 0
DWIDTH 6 0
BBX 5 7 1 1
BITMAP
18
00
70
88
88
90
e0
ENDCHAR
STARTCHAR Odieresis
ENCODING 214
SWIDTH 635 0
DWIDTH 6 0
BBX 5 7 1 1
BITMAP
30
00
70
88
88
90
e0
ENDCHAR
STARTCHAR multiply
ENCODING 215
SWIDTH 635 0
DWIDTH 6 0
BBX 3 3 2 2
BITMAP
60
40
a0
ENDCHAR
STARTCHAR Rcaron
ENCODING 216
SWIDTH 635 0
DWIDTH 6 0
BBX 6 7 0 1
BITMAP
18
10
7c
2c
30
50
4c
ENDCHAR
STARTCHAR Uring
ENCODING 217
SWIDTH 635 0
DWIDTH 6 0
BBX 5 7 1 1
BITMAP
30
10
d8
88
88
90
e0
ENDCHAR
STARTCHAR Uacute
ENCODING 218
SWIDTH 635 0
DWIDTH 6 0
BBX 5 7 1 1
BITMAP
10
00
d8
88
88
90
e0
ENDCHAR
STARTCHAR Uhungarumlaut
ENCODING 219
SWIDTH 635 0
DWIDTH 6 0
BBX 5 7 1 1
BITMAP
18
00
d8
88
88
90
e0
ENDCHAR
STARTCHAR Udieresis
ENCODING 220
SWIDTH 635 0
DWIDTH 6 0
BBX 5 7 1 1
BITMAP
30
00
d8
88
88
90
e0
ENDCHAR
STARTCHAR Yacute
ENCODING 221
SWIDTH 635 0
DWIDTH 6 0
BBX 5 7 1 1
BITMAP
10
00
d8
50
60
40
60
ENDCHAR
STARTCHAR Tcedilla
ENCODING 222
SWIDTH 635 0
DWIDTH 6 0
BBX 5 7 1 -1
BITMAP
f0
a8
20
20
60
60
40
ENDCHAR
STARTCHAR germandbls
ENCODING 223
SWIDTH 635 0
DWIDTH 6 0
BBX 4 6 1 1
BITMAP
30
50
60
50
90
e0
ENDCHAR
STARTCHAR racute
ENCODING 224
SWIDTH 635 0
DWIDTH 6 0
BBX 5 5 1 1
BITMAP
10
78
20
40
e0
ENDCHAR
STARTCHAR aacute
ENCODING 225
SWIDTH 635 0
DWIDTH 6 0
BBX 5 5 0 1
BITMAP
08
38
78
88
f8
ENDCHAR
STARTCHAR acircumflex
ENCODING 226
SWIDTH 635 0
DWIDTH 6 0
BBX 5 5 0 1
BITMAP
18
38
78
88
f8
ENDCHAR
STARTCHAR abreve
ENCODING 227
SWIDTH 635 0
DWIDTH 6 0
BBX 5 6 0 1
BITMAP
20
38
38
78
88
f8
ENDCHAR
STARTCHAR adieresis
ENCODING 228
SWIDTH 635 0
DWIDTH 6 0
BBX 5 5 0 1
BITMAP
18
38
78
88
f8
ENDCHAR
STARTCHAR lacute
ENCODING 229
SWIDTH 635 0
DWIDTH 6 0
BBX 4 7 1 1
BITMAP
10
00
20
20
20
20
70
ENDCHAR
STARTCHAR cacute
ENCODING 230
SWIDTH 635 0
DWIDTH 6 0
BBX 4 5 1 1
BITMAP
10
70
90
80
e0
ENDCHAR
STARTCHAR ccedilla
ENCODING 231
SWIDTH 635 0
DWIDTH 6 0
BBX 4 6 1 -1
BITMAP
70
90
80
e0
60
40
ENDCHAR
STARTCHAR ccaron
ENCODING 232
SWIDTH 635 0
DWIDTH 6 0
BBX 4 5 1 1
BITMAP
20
70
90
80
e0
ENDCHAR
STARTCHAR eacute
ENCODING 233
SWIDTH 635 0
DWIDTH 6 0
BBX 5 5 1 1
BITMAP
10
70
f8
80
f8
ENDCHAR
STARTCHAR eogonek
ENCODING 234
SWIDTH 635 0
DWIDTH 6 0
BBX 5 5 1 0
BITMAP
70
f8
80
f8
60
ENDCHAR
STARTCHAR edieresis
ENCODING 235
SWIDTH 635 0
DWIDTH 6 0
BBX 5 5 1 1
BITMAP
30
70
f8
80
f8
ENDCHAR
STARTCHAR ecaron
ENCODING 236
SWIDTH 635 0
DWIDTH 6 0
BBX 5 5 1 1
BITMAP
20
70
f8
80
f8
ENDCHAR
STARTCHAR iacute
ENCODING 237
SWIDTH 635 0
DWIDTH 6 0
BBX 4 5 1 1
BITMAP
10
60
20
20
70
ENDCHAR
STARTCHAR icircumflex
ENCODING 238
SWIDTH 635 0
DWIDTH 6 0
BBX 4 5 1 1
BITMAP
30
60
20
20
70
ENDCHAR
STARTCHAR dcaron
ENCODING 239
SWIDTH 635 0
DWIDTH 6 0
BBX 7 5 1 1
BITMAP
12
70
90
90
f0
ENDCHAR
STARTCHAR dbar
ENCODING 240
SWIDTH 635 0
DWIDTH 6 0
BBX 6 5 1 1
BITMAP
3c
68
90
90
f0
ENDCHAR
STARTCHAR nacute
ENCODING 241
SWIDTH 635 0
DWIDTH 6 0
BBX 5 5 0 1
BITMAP
08
78
48
48
58
ENDCHAR
STARTCHAR ncaron
ENCODING 242
SWIDTH 635 0
DWIDTH 6 0
BBX 5 5 0 1
BITMAP
10
78
48
48
58
ENDCHAR
STARTCHAR oacute
ENCODING 243
SWIDTH 635 0
DWIDTH 6 0
BBX 5 5 1 1
BITMAP
10
70
88
98
e0
ENDCHAR
STARTCHAR ocircumflex
ENCODING 244
SWIDTH 635 0
DWIDTH 6 0
BBX 5 5 1 1
BITMAP
30
70
88
98
e0
ENDCHAR
STARTCHAR ohungarumlaut
ENCODING 245
SWIDTH 635 0
DWIDTH 6 0
BBX 5 5 1 1
BITMAP
30
70
88
98
e0
ENDCHAR
STARTCHAR odieresis
ENCODING 246
SWIDTH 635 0
DWIDTH 6 0
BBX 5 5 1 1
BITMAP
30
70
88
98
e0
ENDCHAR
STARTCHAR divide
ENCODING 247
SWIDTH 635 0
DWIDTH 6 0
BBX 1 4 3 2
BITMAP
80
00
00
80
ENDCHAR
STARTCHAR rcaron
ENCODING 248
SWIDTH 635 0
DWIDTH 6 0
BBX 5 5 1 1
BITMAP
20
78
20
40
e0
ENDCHAR
STARTCHAR uring
ENCODING 249
SWIDTH 635 0
DWIDTH 6 0
BBX 4 6 1 1
BITMAP
20
20
90
90
90
f0
ENDCHAR
STARTCHAR uacute
ENCODING 250
SWIDTH 635 0
DWIDTH 6 0
BBX 4 5 1 1
BITMAP
10
90
90
90
f0
ENDCHAR
STARTCHAR uhungarumlaut
ENCODING 251
SWIDTH 635 0
DWIDTH 6 0
BBX 4 5 1 1
BITMAP
30
90
90
90
f0
ENDCHAR
STARTCHAR udieresis
ENCODING 252
SWIDTH 635 0
DWIDTH 6 0
BBX 4 5 1 1
BITMAP
30
90
90
90
f0
ENDCHAR
STARTCHAR yacute
ENCODING 253
SWIDTH 635 0
DWIDTH 6 0
BBX 5 7 1 -1
BITMAP
10
d8
90
90
f0
20
e0
ENDCHAR
STARTCHAR tcedilla
ENCODING 254
SWIDTH 635 0
DWIDTH 6 0
BBX 4 7 1 -1
BITMAP
40
70
40
80
f0
20
60
ENDCHAR
STARTCHAR dotaccent
ENCODING 255
SWIDTH 635 0
DWIDTH 6 0
BBX 1 1 3 5
BITMAP
80
ENDCHAR
ENDFONT
